<svg width="36" height="35" viewBox="0 0 36 35" fill="none" xmlns="http://www.w3.org/2000/svg">
<path d="M27.241 25.2778L26.9139 26.2228C27.3609 26.3775 27.8552 26.1979 28.0985 25.7923L27.241 25.2778ZM23.8706 24.1111L24.1978 23.1661L23.6642 22.9814L23.2305 23.3429L23.8706 24.1111ZM21.2781 25.6667L20.8841 24.7475L20.3922 24.9583L20.2948 25.4846L21.2781 25.6667ZM20.6299 29.1667V30.1667C21.112 30.1667 21.5254 29.8227 21.6132 29.3487L20.6299 29.1667ZM16.0929 29.1667L15.1096 29.3487C15.1974 29.8227 15.6108 30.1667 16.0929 30.1667V29.1667ZM15.4447 25.6667L16.428 25.4846L16.3306 24.9583L15.8386 24.7475L15.4447 25.6667ZM12.8521 24.1111L13.4923 23.3429L13.0644 22.9863L12.5359 23.1624L12.8521 24.1111ZM9.35213 25.2778L8.49464 25.7923C8.73578 26.1942 9.22371 26.3747 9.66836 26.2265L9.35213 25.2778ZM7.0188 21.3889L6.34983 20.6456C5.99412 20.9657 5.91509 21.493 6.16131 21.9034L7.0188 21.3889ZM9.61139 19.0555L10.2804 19.7988L10.6684 19.4496L10.6037 18.9315L9.61139 19.0555ZM9.61139 16.0741L10.6013 16.2155L10.6743 15.7045L10.3001 15.3491L9.61139 16.0741ZM7.0188 13.6111L6.16131 13.0966C5.92029 13.4983 5.99043 14.0135 6.33005 14.3361L7.0188 13.6111ZM9.35213 9.72222L9.67924 8.77723C9.23226 8.62251 8.738 8.80212 8.49464 9.20772L9.35213 9.72222ZM12.7225 10.8889L12.3954 11.8339L12.9289 12.0186L13.3627 11.6571L12.7225 10.8889ZM15.3151 9.33333L15.709 10.2525L16.2009 10.0417L16.2984 9.51542L15.3151 9.33333ZM15.9632 5.83333V4.83333C15.4812 4.83333 15.0677 5.17724 14.98 5.65124L15.9632 5.83333ZM20.5003 5.83333L21.4836 5.65124C21.3958 5.17724 20.9823 4.83333 20.5003 4.83333V5.83333ZM21.1484 9.33333L20.1651 9.51542L20.2626 10.0417L20.7545 10.2525L21.1484 9.33333ZM23.741 10.8889L23.1008 11.6571L23.5288 12.0137L24.0572 11.8376L23.741 10.8889ZM27.241 9.72222L28.0985 9.20772C27.8574 8.80582 27.3694 8.62532 26.9248 8.77353L27.241 9.72222ZM29.5744 13.6111L30.2433 14.3544C30.599 14.0343 30.6781 13.507 30.4318 13.0966L29.5744 13.6111ZM26.9818 15.9444L26.3128 15.2011L25.9247 15.5504L25.9895 16.0685L26.9818 15.9444ZM26.9818 18.9259L25.9918 18.7845L25.9188 19.2954L26.293 19.6509L26.9818 18.9259ZM29.5744 21.3889L30.4318 21.9034C30.6729 21.5017 30.6027 20.9865 30.2631 20.6639L29.5744 21.3889ZM27.5681 24.3328L24.1978 23.1661L23.5435 25.0561L26.9139 26.2228L27.5681 24.3328ZM23.2305 23.3429C22.5416 23.9169 21.7219 24.3885 20.8841 24.7475L21.672 26.5858C22.649 26.1671 23.6441 25.6016 24.5108 24.8793L23.2305 23.3429ZM20.2948 25.4846L19.6466 28.9846L21.6132 29.3487L22.2613 25.8487L20.2948 25.4846ZM20.6299 28.1667H16.0929V30.1667H20.6299V28.1667ZM17.0762 28.9846L16.428 25.4846L14.4614 25.8487L15.1096 29.3487L17.0762 28.9846ZM15.8386 24.7475C15.0009 24.3885 14.1811 23.9169 13.4923 23.3429L12.2119 24.8793C13.0787 25.6016 14.0738 26.1671 15.0508 26.5858L15.8386 24.7475ZM12.5359 23.1624L9.0359 24.3291L9.66836 26.2265L13.1684 25.0598L12.5359 23.1624ZM10.2096 24.7633L7.87629 20.8744L6.16131 21.9034L8.49464 25.7923L10.2096 24.7633ZM7.68776 22.1322L10.2804 19.7988L8.94243 18.3123L6.34983 20.6456L7.68776 22.1322ZM10.6037 18.9315C10.4836 17.9706 10.4859 17.0236 10.6013 16.2155L8.62144 15.9326C8.47763 16.9393 8.47997 18.0664 8.61911 19.1796L10.6037 18.9315ZM10.3001 15.3491L7.70755 12.8861L6.33005 14.3361L8.92264 16.7991L10.3001 15.3491ZM7.87629 14.1256L10.2096 10.2367L8.49464 9.20772L6.16131 13.0966L7.87629 14.1256ZM9.02502 10.6672L12.3954 11.8339L13.0496 9.9439L9.67924 8.77723L9.02502 10.6672ZM13.3627 11.6571C14.0515 11.0831 14.8712 10.6115 15.709 10.2525L14.9212 8.41418C13.9441 8.83291 12.949 9.39839 12.0823 10.1207L13.3627 11.6571ZM16.2984 9.51542L16.9465 6.01542L14.98 5.65124L14.3318 9.15124L16.2984 9.51542ZM15.9632 6.83333H20.5003V4.83333H15.9632V6.83333ZM19.517 6.01542L20.1651 9.51542L22.1317 9.15124L21.4836 5.65124L19.517 6.01542ZM20.7545 10.2525C21.5923 10.6115 22.412 11.0831 23.1008 11.6571L24.3812 10.1207C23.5145 9.39839 22.5194 8.83291 21.5423 8.41418L20.7545 10.2525ZM24.0572 11.8376L27.5572 10.6709L26.9248 8.77353L23.4248 9.9402L24.0572 11.8376ZM26.3835 10.2367L28.7169 14.1256L30.4318 13.0966L28.0985 9.20772L26.3835 10.2367ZM28.9054 12.8678L26.3128 15.2011L27.6507 16.6877L30.2433 14.3544L28.9054 12.8678ZM25.9895 16.0685C26.1096 17.0294 26.1073 17.9764 25.9918 18.7845L27.9717 19.0673C28.1155 18.0606 28.1132 16.9335 27.974 15.8204L25.9895 16.0685ZM26.293 19.6509L28.8856 22.1139L30.2631 20.6639L27.6705 18.2009L26.293 19.6509ZM28.7169 20.8744L26.3835 24.7633L28.0985 25.7923L30.4318 21.9034L28.7169 20.8744ZM21.0558 17.5C21.0558 19.0955 19.7624 20.3889 18.1669 20.3889V22.3889C20.867 22.3889 23.0558 20.2001 23.0558 17.5H21.0558ZM18.1669 20.3889C16.5715 20.3889 15.2781 19.0955 15.2781 17.5H13.2781C13.2781 20.2001 15.4669 22.3889 18.1669 22.3889V20.3889ZM15.2781 17.5C15.2781 15.9045 16.5715 14.6111 18.1669 14.6111V12.6111C15.4669 12.6111 13.2781 14.7999 13.2781 17.5H15.2781ZM18.1669 14.6111C19.7624 14.6111 21.0558 15.9045 21.0558 17.5H23.0558C23.0558 14.7999 20.867 12.6111 18.1669 12.6111V14.6111Z" fill="#888888"/>
</svg>
